<?xml version='1.0' encoding='utf-8'?>
<!DOCTYPE svg>
<!-- Generator: Adobe Illustrator 12.0.0, SVG Export Plug-In . SVG Version: 6.00 Build 51448)  -->
<svg xmlns="http://www.w3.org/2000/svg" overflow="visible" width="144.22" viewBox="0 0 144.22 30.345" enable-background="new -14.333 -4 144.22 30.345" id="LED_RGB_Strip" xml:space="preserve" gorn="0" height="30.345" version="1.1" xmlns:xml="http://www.w3.org/XML/1998/namespace" >
    <desc >
        <referenceFile >Untitled Sketch 10_pcb.svg</referenceFile>
    </desc>
    <g transform="translate(14.333,4)" >
        <g >
            <g >
                <g >
                    <g id="silkscreen" gorn="0.1.0.0.0.0" >
                        <rect stroke-width="0.25" width="141.731" fill="none" id="Strip_1_" x="-13.259" y="-2.92" stroke="#000000" gorn="0.1.0.0.0.0.0" height="28.346" />
                    </g>
                    <g >
                        <g transform="matrix(1, 0, 0, 1, 48.5176, 3.4256)" >
                            <g >
                                <g >
                                    <g >
                                        <g id="copper0" gorn="0.1.0.0.0.1.0.0.0.0.0" >
                                            <g >
                                                <g id="copper1" gorn="0.1.0.0.0.1.0.0.0.0.0.0.0" >
                                                    <path stroke-width="0.2" fill="#E5AB6B" id="Connector_x5F_7" stroke="#6B6B6A" gorn="0.1.0.0.0.1.0.0.0.0.0.0.0.0" d="M73.319,18.233c0,1.306,1.178,2.363,2.627,2.363h4.063v-4.728h-4.063C74.497,15.868,73.319,16.927,73.319,18.233L73.319,18.233z" />
                                                    <circle stroke-width="0.9216" r="1.584" fill="none" id="connector1pad" stroke="#FFBF00" gorn="0.1.0.0.0.1.0.0.0.0.0.0.0.1" cy="18.375" cx="75.701" />
                                                    <path stroke-width="0.2" fill="#E5AB6B" id="Connector_x5F_6" stroke="#6B6B6A" gorn="0.1.0.0.0.1.0.0.0.0.0.0.0.2" d="M73.319,11.116c0,1.307,1.178,2.364,2.627,2.364h4.063V8.752h-4.063C74.497,8.755,73.319,9.814,73.319,11.116L73.319,11.116z" />
                                                    <circle stroke-width="0.9216" r="1.584" fill="none" id="connector2pad" stroke="#FFBF00" gorn="0.1.0.0.0.1.0.0.0.0.0.0.0.3" cy="11.176" cx="75.701" />
                                                    <path stroke-width="0.2" fill="#E5AB6B" id="Connector_x5F_5" stroke="#6B6B6A" gorn="0.1.0.0.0.1.0.0.0.0.0.0.0.4" d="M73.319,3.903c0,1.305,1.178,2.363,2.627,2.363h4.063V1.537h-4.063C74.497,1.537,73.319,2.596,73.319,3.903L73.319,3.903z" />
                                                    <circle stroke-width="0.9216" r="1.584" fill="none" id="connector3pad" stroke="#FFBF00" gorn="0.1.0.0.0.1.0.0.0.0.0.0.0.5" cy="3.977" cx="75.701" />
                                                    <path stroke-width="0.2" fill="#E5AB6B" id="Connector_x5F_4" stroke="#6B6B6A" gorn="0.1.0.0.0.1.0.0.0.0.0.0.0.6" d="M73.319-3.222c0,1.306,1.178,2.365,2.627,2.365h4.063v-4.729h-4.063C74.497-5.587,73.319-4.528,73.319-3.222L73.319-3.222z" />
                                                    <circle stroke-width="0.9216" r="1.584" fill="none" id="connector0pad" stroke="#FFBF00" gorn="0.1.0.0.0.1.0.0.0.0.0.0.0.7" cy="-3.221" cx="75.701" />
                                                    <path stroke-width="0.2" fill="#E5AB6B" id="Connector_x5F_3" stroke="#6B6B6A" gorn="0.1.0.0.0.1.0.0.0.0.0.0.0.8" d="M-54.968,18.357c0,1.307-1.178,2.364-2.625,2.364h-4.063v-4.729h4.063C-56.143,15.992-54.968,17.052-54.968,18.357L-54.968,18.357z" />
                                                    <circle stroke-width="0.9216" r="1.584" fill="none" id="connector5pin" stroke="#FFBF00" gorn="0.1.0.0.0.1.0.0.0.0.0.0.0.9" cy="18.375" cx="-57.627" />
                                                    <path stroke-width="0.2" fill="#E5AB6B" id="Connector_x5F_2" stroke="#6B6B6A" gorn="0.1.0.0.0.1.0.0.0.0.0.0.0.10" d="M-54.968,11.158c0,1.308-1.178,2.365-2.625,2.365h-4.063V8.795h4.063C-56.143,8.796-54.968,9.856-54.968,11.158L-54.968,11.158z" />
                                                    <circle stroke-width="0.9216" r="1.584" fill="none" id="connector6pin" stroke="#FFBF00" gorn="0.1.0.0.0.1.0.0.0.0.0.0.0.11" cy="11.176" cx="-57.627" />
                                                    <path stroke-width="0.2" fill="#E5AB6B" id="Connector_x5F_1" stroke="#6B6B6A" gorn="0.1.0.0.0.1.0.0.0.0.0.0.0.12" d="M-54.968,3.903c0,1.305-1.178,2.363-2.625,2.363h-4.063V1.537h4.063C-56.143,1.537-54.968,2.596-54.968,3.903L-54.968,3.903z" />
                                                    <circle stroke-width="0.9216" r="1.584" fill="none" id="connector7pin" stroke="#FFBF00" gorn="0.1.0.0.0.1.0.0.0.0.0.0.0.13" cy="3.977" cx="-57.627" />
                                                    <path stroke-width="0.2" fill="#E5AB6B" id="Connector_x5F_0" stroke="#6B6B6A" gorn="0.1.0.0.0.1.0.0.0.0.0.0.0.14" d="M-54.968-3.222c0,1.306-1.178,2.365-2.625,2.365h-4.063v-4.729h4.063C-56.143-5.587-54.968-4.528-54.968-3.222L-54.968-3.222z" />
                                                    <circle stroke-width="0.9216" r="1.584" fill="none" id="connector4pin" stroke="#FFBF00" gorn="0.1.0.0.0.1.0.0.0.0.0.0.0.15" cy="-3.221" cx="-57.627" />
                                                </g>
                                            </g>
                                        </g>
                                    </g>
                                </g>
                            </g>
                        </g>
                    </g>
                    <g >
                        <g transform="matrix(1, 0, 0, 1, 48.5176, 3.4256)" >
                            <g >
                                <g >
                                    <g >
                                        <g id="copper1_1_" gorn="0.1.0.0.0.2.0.0.0.0.0" >
                                            <g >
                                                <path stroke-width="0.2" fill="#E5AB6B" id="connector15pin" stroke="#6B6B6A" gorn="0.1.0.0.0.2.0.0.0.0.0.0.0" d="M73.319,18.233c0,1.306,1.178,2.363,2.627,2.363h4.063v-4.728h-4.063C74.497,15.868,73.319,16.927,73.319,18.233L73.319,18.233z" />
                                                <circle stroke-width="0.9216" r="1.584" fill="none" id="connector1pad_1_" stroke="#FFBF00" gorn="0.1.0.0.0.2.0.0.0.0.0.0.1" cy="18.375" cx="75.701" />
                                                <path stroke-width="0.2" fill="#E5AB6B" id="connector14pin" stroke="#6B6B6A" gorn="0.1.0.0.0.2.0.0.0.0.0.0.2" d="M73.319,11.116c0,1.307,1.178,2.364,2.627,2.364h4.063V8.752h-4.063C74.497,8.755,73.319,9.814,73.319,11.116L73.319,11.116z" />
                                                <circle stroke-width="0.9216" r="1.584" fill="none" id="connector2pad_1_" stroke="#FFBF00" gorn="0.1.0.0.0.2.0.0.0.0.0.0.3" cy="11.176" cx="75.701" />
                                                <path stroke-width="0.2" fill="#E5AB6B" id="connector13pin" stroke="#6B6B6A" gorn="0.1.0.0.0.2.0.0.0.0.0.0.4" d="M73.319,3.903c0,1.305,1.178,2.363,2.627,2.363h4.063V1.537h-4.063C74.497,1.537,73.319,2.596,73.319,3.903L73.319,3.903z" />
                                                <circle stroke-width="0.9216" r="1.584" fill="none" id="connector3pad_1_" stroke="#FFBF00" gorn="0.1.0.0.0.2.0.0.0.0.0.0.5" cy="3.977" cx="75.701" />
                                                <path stroke-width="0.2" fill="#E5AB6B" id="connector12pin" stroke="#6B6B6A" gorn="0.1.0.0.0.2.0.0.0.0.0.0.6" d="M73.319-3.222c0,1.306,1.178,2.365,2.627,2.365h4.063v-4.729h-4.063C74.497-5.587,73.319-4.528,73.319-3.222L73.319-3.222z" />
                                                <circle stroke-width="0.9216" r="1.584" fill="none" id="connector0pad_1_" stroke="#FFBF00" gorn="0.1.0.0.0.2.0.0.0.0.0.0.7" cy="-3.221" cx="75.701" />
                                                <path stroke-width="0.2" fill="#E5AB6B" id="connector11pin" stroke="#6B6B6A" gorn="0.1.0.0.0.2.0.0.0.0.0.0.8" d="M-54.968,18.357c0,1.307-1.178,2.364-2.625,2.364h-4.063v-4.729h4.063C-56.143,15.992-54.968,17.052-54.968,18.357L-54.968,18.357z" />
                                                <circle stroke-width="0.9216" r="1.584" fill="none" id="connector5pin_1_" stroke="#FFBF00" gorn="0.1.0.0.0.2.0.0.0.0.0.0.9" cy="18.375" cx="-57.627" />
                                                <path stroke-width="0.2" fill="#E5AB6B" id="connector10pin" stroke="#6B6B6A" gorn="0.1.0.0.0.2.0.0.0.0.0.0.10" d="M-54.968,11.158c0,1.308-1.178,2.365-2.625,2.365h-4.063V8.795h4.063C-56.143,8.796-54.968,9.856-54.968,11.158L-54.968,11.158z" />
                                                <circle stroke-width="0.9216" r="1.584" fill="none" id="connector6pin_1_" stroke="#FFBF00" gorn="0.1.0.0.0.2.0.0.0.0.0.0.11" cy="11.176" cx="-57.627" />
                                                <path stroke-width="0.2" fill="#E5AB6B" id="connector9pin" stroke="#6B6B6A" gorn="0.1.0.0.0.2.0.0.0.0.0.0.12" d="M-54.968,3.903c0,1.305-1.178,2.363-2.625,2.363h-4.063V1.537h4.063C-56.143,1.537-54.968,2.596-54.968,3.903L-54.968,3.903z" />
                                                <circle stroke-width="0.9216" r="1.584" fill="none" id="connector7pin_1_" stroke="#FFBF00" gorn="0.1.0.0.0.2.0.0.0.0.0.0.13" cy="3.977" cx="-57.627" />
                                                <path stroke-width="0.2" fill="#E5AB6B" id="connector8pin" stroke="#6B6B6A" gorn="0.1.0.0.0.2.0.0.0.0.0.0.14" d="M-54.968-3.222c0,1.306-1.178,2.365-2.625,2.365h-4.063v-4.729h4.063C-56.143-5.587-54.968-4.528-54.968-3.222L-54.968-3.222z" />
                                                <circle stroke-width="0.9216" r="1.584" fill="none" id="connector4pin_1_" stroke="#FFBF00" gorn="0.1.0.0.0.2.0.0.0.0.0.0.15" cy="-3.221" cx="-57.627" />
                                            </g>
                                        </g>
                                    </g>
                                </g>
                            </g>
                        </g>
                    </g>
                </g>
            </g>
        </g>
    </g>
</svg>
